<svg width="18" height="18" viewBox="0 0 18 18" fill="none" xmlns="http://www.w3.org/2000/svg">
<path d="M13.1909 11.608H12.3572L12.0618 11.3231C13.328 9.84583 13.9823 7.83037 13.6235 5.68828C13.1276 2.75478 10.6795 0.412195 7.72485 0.053421C3.26128 -0.495292 -0.495292 3.26128 0.053421 7.72485C0.412195 10.6795 2.75478 13.1276 5.68828 13.6235C7.83037 13.9823 9.84583 13.328 11.3231 12.0618L11.608 12.3572V13.1909L16.0927 17.6755C16.5254 18.1082 17.2324 18.1082 17.665 17.6755C18.0976 17.2429 18.0976 16.5359 17.665 16.1033L13.1909 11.608ZM6.85957 11.608C4.23208 11.608 2.11109 9.48706 2.11109 6.85957C2.11109 4.23208 4.23208 2.11109 6.85957 2.11109C9.48706 2.11109 11.608 4.23208 11.608 6.85957C11.608 9.48706 9.48706 11.608 6.85957 11.608Z" fill="#121212"/>
</svg>
