<svg width="19" height="19" viewBox="0 0 19 19" fill="none" xmlns="http://www.w3.org/2000/svg">
<path d="M17.6429 10.8572H10.8572V17.6429C10.8572 18.3893 10.2465 19 9.50002 19C8.75359 19 8.14287 18.3893 8.14287 17.6429V10.8572H1.35715C0.610716 10.8572 0 10.2465 0 9.50002C0 8.75359 0.610716 8.14287 1.35715 8.14287H8.14287V1.35715C8.14287 0.610716 8.75359 0 9.50002 0C10.2465 0 10.8572 0.610716 10.8572 1.35715V8.14287H17.6429C18.3893 8.14287 19 8.75359 19 9.50002C19 10.2465 18.3893 10.8572 17.6429 10.8572Z" fill="#121212"/>
</svg>
