<svg width="29" height="28" viewBox="0 0 29 28" fill="none" xmlns="http://www.w3.org/2000/svg">
<path d="M27.4584 9.28019L19.2583 8.5686L16.0562 1.02925C15.4802 -0.343083 13.5149 -0.343083 12.9388 1.02925L9.73671 8.58555L1.55354 9.28019C0.0626148 9.39878 -0.547311 11.2624 0.587828 12.2451L6.80568 17.6328L4.94202 25.6296C4.60317 27.0866 6.17881 28.2387 7.46643 27.4594L14.4975 23.2238L21.5286 27.4763C22.8162 28.2556 24.3919 27.1036 24.053 25.6465L22.1894 17.6328L28.4072 12.2451C29.5423 11.2624 28.9494 9.39878 27.4584 9.28019ZM14.4975 20.0555V4.29913L17.3947 11.1438L24.8154 11.7877L19.1906 16.6671L20.8848 23.9184L14.4975 20.0555Z" fill="#FBE84A"/>
</svg>
