<svg width="18" height="18" viewBox="0 0 18 18" fill="none" xmlns="http://www.w3.org/2000/svg">
<path d="M14.6229 7.31143C14.6229 8.92486 14.0991 10.4153 13.2168 11.6245L17.6669 16.0781C18.1063 16.5175 18.1063 17.2311 17.6669 17.6705C17.2276 18.1098 16.514 18.1098 16.0746 17.6705L11.6245 13.2168C10.4153 14.1026 8.92486 14.6229 7.31143 14.6229C3.27257 14.6229 0 11.3503 0 7.31143C0 3.27257 3.27257 0 7.31143 0C11.3503 0 14.6229 3.27257 14.6229 7.31143ZM7.31143 12.3732C7.97615 12.3732 8.63436 12.2423 9.24848 11.9879C9.8626 11.7335 10.4206 11.3607 10.8906 10.8906C11.3607 10.4206 11.7335 9.8626 11.9879 9.24848C12.2423 8.63436 12.3732 7.97615 12.3732 7.31143C12.3732 6.64671 12.2423 5.9885 11.9879 5.37438C11.7335 4.76026 11.3607 4.20225 10.8906 3.73223C10.4206 3.2622 9.8626 2.88935 9.24848 2.63497C8.63436 2.3806 7.97615 2.24967 7.31143 2.24967C6.64671 2.24967 5.9885 2.3806 5.37438 2.63497C4.76026 2.88935 4.20225 3.2622 3.73223 3.73223C3.2622 4.20225 2.88935 4.76026 2.63497 5.37438C2.3806 5.9885 2.24967 6.64671 2.24967 7.31143C2.24967 7.97615 2.3806 8.63436 2.63497 9.24848C2.88935 9.8626 3.2622 10.4206 3.73223 10.8906C4.20225 11.3607 4.76026 11.7335 5.37438 11.9879C5.9885 12.2423 6.64671 12.3732 7.31143 12.3732Z" fill="#121212"/>
</svg>
