<svg width="83" height="7" viewBox="0 0 83 7" fill="none" xmlns="http://www.w3.org/2000/svg">
<path d="M3.89126 6.20519C3.89126 6.47742 3.75514 6.62204 3.48292 6.62204H0.9563C0.479902 6.62204 0.250209 6.37534 0.250209 5.89894V0.828693C0.250209 0.462887 0.462887 0.258716 0.837201 0.258716C1.21151 0.250209 1.4327 0.462887 1.4327 0.828693V5.66074C1.4327 5.76282 1.47523 5.79685 1.56881 5.79685H3.48292C3.74664 5.79685 3.89126 5.94147 3.89126 6.20519Z" fill="#2F726D"/>
<path d="M6.45655 6.74114C6.08224 6.74114 5.86956 6.56249 5.86956 6.18818V0.811679C5.86956 0.45438 6.08224 0.250209 6.45655 0.250209C6.83087 0.250209 7.05205 0.45438 7.05205 0.811679V6.18818C7.05205 6.55399 6.83937 6.74114 6.45655 6.74114Z" fill="#2F726D"/>
<path d="M13.5846 0.377816C13.8483 0.377816 13.9844 0.522437 13.9844 0.786158C13.9844 1.04137 13.8483 1.18599 13.5846 1.18599H12.1044V6.17967C12.1044 6.55399 11.8917 6.74965 11.5174 6.74965C11.1345 6.74965 10.9304 6.55399 10.9304 6.17967V1.18599H9.45013C9.19492 1.18599 9.0588 1.04137 9.0588 0.786158C9.0588 0.522437 9.18641 0.377816 9.45013 0.377816H13.5846Z" fill="#2F726D"/>
<path d="M19.9516 0.377816C20.2154 0.377816 20.3515 0.522437 20.3515 0.786158C20.3515 1.04137 20.2154 1.18599 19.9516 1.18599H18.4714V6.17967C18.4714 6.55399 18.2587 6.74965 17.8844 6.74965C17.5016 6.74965 17.2974 6.55399 17.2974 6.17967V1.18599H15.8172C15.562 1.18599 15.4259 1.04137 15.4259 0.786158C15.4259 0.522437 15.5535 0.377816 15.8172 0.377816H19.9516Z" fill="#2F726D"/>
<path d="M25.9699 6.20519C25.9699 6.47742 25.8338 6.62204 25.5616 6.62204H23.0349C22.5585 6.62204 22.3288 6.37534 22.3288 5.89894V0.828693C22.3288 0.462887 22.5415 0.258716 22.9158 0.258716C23.2902 0.250209 23.5113 0.462887 23.5113 0.828693V5.66074C23.5113 5.76282 23.5539 5.79685 23.6475 5.79685H25.5616C25.8253 5.79685 25.9699 5.94147 25.9699 6.20519Z" fill="#2F726D"/>
<path d="M31.8274 6.2137C31.8274 6.47742 31.6913 6.62204 31.4361 6.62204H28.5777C28.1694 6.62204 27.9482 6.40086 27.9482 5.98401V1.00734C27.9482 0.607508 28.1694 0.377816 28.5777 0.377816H31.3766C31.6233 0.377816 31.7679 0.51393 31.7679 0.777651C31.7679 1.04137 31.6318 1.18599 31.3766 1.18599H29.2243C29.1732 1.18599 29.1307 1.22002 29.1307 1.27957V2.9895H31.1214C31.3681 2.9895 31.5127 3.12562 31.5127 3.38934C31.5127 3.64455 31.3681 3.78917 31.1214 3.78917H29.1307V5.72029C29.1307 5.77133 29.1647 5.81387 29.2243 5.81387H31.4361C31.6828 5.81387 31.8274 5.95849 31.8274 6.2137Z" fill="#2F726D"/>
<path d="M40.3431 6.74965C38.5396 6.74965 37.4847 5.56716 37.4847 3.42337C37.4847 1.50926 38.5907 0.250209 40.4027 0.250209C41.1598 0.250209 41.7553 0.505423 42.0446 0.752129C42.2487 0.913765 42.3083 1.16898 42.1807 1.34763C42.0361 1.54329 41.7894 1.57732 41.5682 1.4327C41.2874 1.24554 40.9216 1.08391 40.4197 1.08391C39.3903 1.08391 38.7183 1.89208 38.7183 3.43187C38.7183 5.03121 39.3308 5.91595 40.3942 5.91595C40.9386 5.91595 41.2959 5.75432 41.5852 5.54164C41.8064 5.3715 42.0531 5.38851 42.2232 5.60119C42.3763 5.79685 42.3508 6.05207 42.1296 6.23922C41.7894 6.52846 41.1598 6.74965 40.3431 6.74965Z" fill="#2F726D"/>
<path d="M48.7042 6.74965C48.3214 6.74965 48.1087 6.56249 48.1087 6.17967V3.78917H45.565V6.17117C45.565 6.56249 45.3524 6.74965 44.9781 6.74965C44.5952 6.74965 44.3826 6.56249 44.3826 6.17117V0.828693C44.3826 0.437366 44.6037 0.250209 44.9781 0.250209C45.3524 0.250209 45.565 0.437366 45.565 0.828693V2.9895H48.1087V0.820186C48.1087 0.437366 48.3214 0.250209 48.7042 0.250209C49.0785 0.250209 49.2912 0.437366 49.2912 0.820186V6.17967C49.2912 6.56249 49.0785 6.74965 48.7042 6.74965Z" fill="#2F726D"/>
<path d="M56.6961 5.96699C56.8152 6.34982 56.6961 6.59652 56.3473 6.69861C55.9645 6.81771 55.7008 6.70711 55.5902 6.3328C55.4285 5.77984 55.2584 5.22688 55.0882 4.67391H52.9104L52.3575 6.36683C52.2554 6.69861 52.0342 6.8092 51.7024 6.70711C51.3706 6.60503 51.2515 6.37534 51.3706 6.03505L53.1401 0.930779C53.2932 0.471394 53.557 0.250209 53.9993 0.250209C54.4417 0.250209 54.799 0.471394 54.9606 0.930779C55.4881 2.394 56.1601 4.29109 56.6961 5.96699ZM53.1656 3.89126H54.85C54.5863 3.04054 54.3226 2.19834 54.0589 1.38166H53.9908L53.1656 3.89126Z" fill="#2F726D"/>
<path d="M60.5647 0.335281C62.164 0.335281 63.1764 0.973315 63.1764 2.25789C63.1764 3.69559 62.0109 4.24856 60.6413 4.27408C60.4031 4.27408 60.1734 4.26557 59.9692 4.25706V6.15415C59.9692 6.54548 59.748 6.74965 59.3737 6.74965C58.9824 6.74965 58.7782 6.54548 58.7782 6.15415V1.04988C58.7782 0.667058 58.9654 0.437366 59.3397 0.386323C59.6629 0.352295 60.1308 0.335281 60.5647 0.335281ZM60.5987 3.48292C61.5005 3.4659 61.9684 3.06607 61.9684 2.28341C61.9684 1.54329 61.4665 1.11794 60.5732 1.11794C60.386 1.11794 60.1649 1.12644 60.0458 1.14346C59.9862 1.15196 59.9607 1.18599 59.9607 1.24554V3.47441C60.1649 3.49142 60.3946 3.49142 60.5987 3.48292Z" fill="#2F726D"/>
<path d="M69.1102 0.377816C69.3739 0.377816 69.51 0.522437 69.51 0.786158C69.51 1.04137 69.3739 1.18599 69.1102 1.18599H67.6299V6.17967C67.6299 6.55399 67.4172 6.74965 67.0429 6.74965C66.6601 6.74965 66.4559 6.55399 66.4559 6.17967V1.18599H64.9757C64.7205 1.18599 64.5844 1.04137 64.5844 0.786158C64.5844 0.522437 64.712 0.377816 64.9757 0.377816H69.1102Z" fill="#2F726D"/>
<path d="M75.3666 6.2137C75.3666 6.47742 75.2305 6.62204 74.9753 6.62204H72.1169C71.7086 6.62204 71.4874 6.40086 71.4874 5.98401V1.00734C71.4874 0.607508 71.7086 0.377816 72.1169 0.377816H74.9157C75.1624 0.377816 75.3071 0.51393 75.3071 0.777651C75.3071 1.04137 75.171 1.18599 74.9157 1.18599H72.7634C72.7124 1.18599 72.6699 1.22002 72.6699 1.27957V2.9895H74.6605C74.9072 2.9895 75.0519 3.12562 75.0519 3.38934C75.0519 3.64455 74.9072 3.78917 74.6605 3.78917H72.6699V5.72029C72.6699 5.77133 72.7039 5.81387 72.7634 5.81387H74.9753C75.222 5.81387 75.3666 5.95849 75.3666 6.2137Z" fill="#2F726D"/>
<path d="M81.8451 5.89894C82.0238 6.20519 81.9642 6.48593 81.658 6.65607C81.3432 6.83472 81.037 6.74965 80.8668 6.42638C80.6116 5.94147 80.0927 4.98868 79.6503 4.17199C79.5482 4.1805 79.4376 4.18901 79.3355 4.18901C79.0888 4.18901 78.8591 4.1805 78.655 4.17199V6.15415C78.655 6.54548 78.4423 6.74965 78.068 6.74965C77.6766 6.74965 77.464 6.54548 77.464 6.15415V1.01585C77.464 0.633029 77.6596 0.403338 78.0339 0.360802C78.3572 0.318266 78.8251 0.301252 79.2505 0.301252C80.8583 0.301252 81.8621 0.939286 81.8621 2.22386C81.8621 3.13412 81.3858 3.69559 80.6456 3.96782C81.1901 4.80152 81.6069 5.4906 81.8451 5.89894ZM79.293 3.39784C80.2203 3.38083 80.6626 3.00652 80.6626 2.24938C80.6626 1.47523 80.1948 1.08391 79.2675 1.08391C79.0718 1.08391 78.8506 1.09241 78.7315 1.10943C78.672 1.11794 78.6465 1.15196 78.6465 1.21151V3.38934C78.8506 3.40635 79.0888 3.40635 79.293 3.39784Z" fill="#2F726D"/>
<path d="M3.89126 6.20519C3.89126 6.47742 3.75514 6.62204 3.48292 6.62204H0.9563C0.479902 6.62204 0.250209 6.37534 0.250209 5.89894V0.828693C0.250209 0.462887 0.462887 0.258716 0.837201 0.258716C1.21151 0.250209 1.4327 0.462887 1.4327 0.828693V5.66074C1.4327 5.76282 1.47523 5.79685 1.56881 5.79685H3.48292C3.74664 5.79685 3.89126 5.94147 3.89126 6.20519Z" stroke="#2F726D" stroke-width="0.5"/>
<path d="M6.45655 6.74114C6.08224 6.74114 5.86956 6.56249 5.86956 6.18818V0.811679C5.86956 0.45438 6.08224 0.250209 6.45655 0.250209C6.83087 0.250209 7.05205 0.45438 7.05205 0.811679V6.18818C7.05205 6.55399 6.83937 6.74114 6.45655 6.74114Z" stroke="#2F726D" stroke-width="0.5"/>
<path d="M13.5846 0.377816C13.8483 0.377816 13.9844 0.522437 13.9844 0.786158C13.9844 1.04137 13.8483 1.18599 13.5846 1.18599H12.1044V6.17967C12.1044 6.55399 11.8917 6.74965 11.5174 6.74965C11.1345 6.74965 10.9304 6.55399 10.9304 6.17967V1.18599H9.45013C9.19492 1.18599 9.0588 1.04137 9.0588 0.786158C9.0588 0.522437 9.18641 0.377816 9.45013 0.377816H13.5846Z" stroke="#2F726D" stroke-width="0.5"/>
<path d="M19.9516 0.377816C20.2154 0.377816 20.3515 0.522437 20.3515 0.786158C20.3515 1.04137 20.2154 1.18599 19.9516 1.18599H18.4714V6.17967C18.4714 6.55399 18.2587 6.74965 17.8844 6.74965C17.5016 6.74965 17.2974 6.55399 17.2974 6.17967V1.18599H15.8172C15.562 1.18599 15.4259 1.04137 15.4259 0.786158C15.4259 0.522437 15.5535 0.377816 15.8172 0.377816H19.9516Z" stroke="#2F726D" stroke-width="0.5"/>
<path d="M25.9699 6.20519C25.9699 6.47742 25.8338 6.62204 25.5616 6.62204H23.0349C22.5585 6.62204 22.3288 6.37534 22.3288 5.89894V0.828693C22.3288 0.462887 22.5415 0.258716 22.9158 0.258716C23.2902 0.250209 23.5113 0.462887 23.5113 0.828693V5.66074C23.5113 5.76282 23.5539 5.79685 23.6475 5.79685H25.5616C25.8253 5.79685 25.9699 5.94147 25.9699 6.20519Z" stroke="#2F726D" stroke-width="0.5"/>
<path d="M31.8274 6.2137C31.8274 6.47742 31.6913 6.62204 31.4361 6.62204H28.5777C28.1694 6.62204 27.9482 6.40086 27.9482 5.98401V1.00734C27.9482 0.607508 28.1694 0.377816 28.5777 0.377816H31.3766C31.6233 0.377816 31.7679 0.51393 31.7679 0.777651C31.7679 1.04137 31.6318 1.18599 31.3766 1.18599H29.2243C29.1732 1.18599 29.1307 1.22002 29.1307 1.27957V2.9895H31.1214C31.3681 2.9895 31.5127 3.12562 31.5127 3.38934C31.5127 3.64455 31.3681 3.78917 31.1214 3.78917H29.1307V5.72029C29.1307 5.77133 29.1647 5.81387 29.2243 5.81387H31.4361C31.6828 5.81387 31.8274 5.95849 31.8274 6.2137Z" stroke="#2F726D" stroke-width="0.5"/>
<path d="M40.3431 6.74965C38.5396 6.74965 37.4847 5.56716 37.4847 3.42337C37.4847 1.50926 38.5907 0.250209 40.4027 0.250209C41.1598 0.250209 41.7553 0.505423 42.0446 0.752129C42.2487 0.913765 42.3083 1.16898 42.1807 1.34763C42.0361 1.54329 41.7894 1.57732 41.5682 1.4327C41.2874 1.24554 40.9216 1.08391 40.4197 1.08391C39.3903 1.08391 38.7183 1.89208 38.7183 3.43187C38.7183 5.03121 39.3308 5.91595 40.3942 5.91595C40.9386 5.91595 41.2959 5.75432 41.5852 5.54164C41.8064 5.3715 42.0531 5.38851 42.2232 5.60119C42.3763 5.79685 42.3508 6.05207 42.1296 6.23922C41.7894 6.52846 41.1598 6.74965 40.3431 6.74965Z" stroke="#2F726D" stroke-width="0.5"/>
<path d="M48.7042 6.74965C48.3214 6.74965 48.1087 6.56249 48.1087 6.17967V3.78917H45.565V6.17117C45.565 6.56249 45.3524 6.74965 44.9781 6.74965C44.5952 6.74965 44.3826 6.56249 44.3826 6.17117V0.828693C44.3826 0.437366 44.6037 0.250209 44.9781 0.250209C45.3524 0.250209 45.565 0.437366 45.565 0.828693V2.9895H48.1087V0.820186C48.1087 0.437366 48.3214 0.250209 48.7042 0.250209C49.0785 0.250209 49.2912 0.437366 49.2912 0.820186V6.17967C49.2912 6.56249 49.0785 6.74965 48.7042 6.74965Z" stroke="#2F726D" stroke-width="0.5"/>
<path d="M56.6961 5.96699C56.8152 6.34982 56.6961 6.59652 56.3473 6.69861C55.9645 6.81771 55.7008 6.70711 55.5902 6.3328C55.4285 5.77984 55.2584 5.22688 55.0882 4.67391H52.9104L52.3575 6.36683C52.2554 6.69861 52.0342 6.8092 51.7024 6.70711C51.3706 6.60503 51.2515 6.37534 51.3706 6.03505L53.1401 0.930779C53.2932 0.471394 53.557 0.250209 53.9993 0.250209C54.4417 0.250209 54.799 0.471394 54.9606 0.930779C55.4881 2.394 56.1601 4.29109 56.6961 5.96699ZM53.1656 3.89126H54.85C54.5863 3.04054 54.3226 2.19834 54.0589 1.38166H53.9908L53.1656 3.89126Z" stroke="#2F726D" stroke-width="0.5"/>
<path d="M60.5647 0.335281C62.164 0.335281 63.1764 0.973315 63.1764 2.25789C63.1764 3.69559 62.0109 4.24856 60.6413 4.27408C60.4031 4.27408 60.1734 4.26557 59.9692 4.25706V6.15415C59.9692 6.54548 59.748 6.74965 59.3737 6.74965C58.9824 6.74965 58.7782 6.54548 58.7782 6.15415V1.04988C58.7782 0.667058 58.9654 0.437366 59.3397 0.386323C59.6629 0.352295 60.1308 0.335281 60.5647 0.335281ZM60.5987 3.48292C61.5005 3.4659 61.9684 3.06607 61.9684 2.28341C61.9684 1.54329 61.4665 1.11794 60.5732 1.11794C60.386 1.11794 60.1649 1.12644 60.0458 1.14346C59.9862 1.15196 59.9607 1.18599 59.9607 1.24554V3.47441C60.1649 3.49142 60.3946 3.49142 60.5987 3.48292Z" stroke="#2F726D" stroke-width="0.5"/>
<path d="M69.1102 0.377816C69.3739 0.377816 69.51 0.522437 69.51 0.786158C69.51 1.04137 69.3739 1.18599 69.1102 1.18599H67.6299V6.17967C67.6299 6.55399 67.4172 6.74965 67.0429 6.74965C66.6601 6.74965 66.4559 6.55399 66.4559 6.17967V1.18599H64.9757C64.7205 1.18599 64.5844 1.04137 64.5844 0.786158C64.5844 0.522437 64.712 0.377816 64.9757 0.377816H69.1102Z" stroke="#2F726D" stroke-width="0.5"/>
<path d="M75.3666 6.2137C75.3666 6.47742 75.2305 6.62204 74.9753 6.62204H72.1169C71.7086 6.62204 71.4874 6.40086 71.4874 5.98401V1.00734C71.4874 0.607508 71.7086 0.377816 72.1169 0.377816H74.9157C75.1624 0.377816 75.3071 0.51393 75.3071 0.777651C75.3071 1.04137 75.171 1.18599 74.9157 1.18599H72.7634C72.7124 1.18599 72.6699 1.22002 72.6699 1.27957V2.9895H74.6605C74.9072 2.9895 75.0519 3.12562 75.0519 3.38934C75.0519 3.64455 74.9072 3.78917 74.6605 3.78917H72.6699V5.72029C72.6699 5.77133 72.7039 5.81387 72.7634 5.81387H74.9753C75.222 5.81387 75.3666 5.95849 75.3666 6.2137Z" stroke="#2F726D" stroke-width="0.5"/>
<path d="M81.8451 5.89894C82.0238 6.20519 81.9642 6.48593 81.658 6.65607C81.3432 6.83472 81.037 6.74965 80.8668 6.42638C80.6116 5.94147 80.0927 4.98868 79.6503 4.17199C79.5482 4.1805 79.4376 4.18901 79.3355 4.18901C79.0888 4.18901 78.8591 4.1805 78.655 4.17199V6.15415C78.655 6.54548 78.4423 6.74965 78.068 6.74965C77.6766 6.74965 77.464 6.54548 77.464 6.15415V1.01585C77.464 0.633029 77.6596 0.403338 78.0339 0.360802C78.3572 0.318266 78.8251 0.301252 79.2505 0.301252C80.8583 0.301252 81.8621 0.939286 81.8621 2.22386C81.8621 3.13412 81.3858 3.69559 80.6456 3.96782C81.1901 4.80152 81.6069 5.4906 81.8451 5.89894ZM79.293 3.39784C80.2203 3.38083 80.6626 3.00652 80.6626 2.24938C80.6626 1.47523 80.1948 1.08391 79.2675 1.08391C79.0718 1.08391 78.8506 1.09241 78.7315 1.10943C78.672 1.11794 78.6465 1.15196 78.6465 1.21151V3.38934C78.8506 3.40635 79.0888 3.40635 79.293 3.39784Z" stroke="#2F726D" stroke-width="0.5"/>
</svg>
