<svg width="83" height="20" viewBox="0 0 83 20" fill="none" xmlns="http://www.w3.org/2000/svg">
<path d="M66.2085 7.15612C65.7677 7.15612 65.5072 6.89563 65.5072 6.45481C65.5072 5.99394 65.7677 5.73345 66.2085 5.73345H70.3162C70.0557 5.15236 69.8553 4.75161 69.5147 4.13045C69.3945 3.91003 69.3744 3.70966 69.4345 3.54935H67.1903C66.7295 3.54935 66.489 3.26883 66.489 2.828C66.489 2.36714 66.7295 2.12668 67.1903 2.12668H72.7207V1.22499C72.7207 0.483601 73.1816 0.0227358 74.0232 0.0227358C74.8647 0.0227358 75.3256 0.483601 75.3256 1.22499V2.12668H80.9161C81.377 2.12668 81.6374 2.36714 81.6374 2.828C81.6374 3.28887 81.377 3.54935 80.9161 3.54935H78.4915C78.752 3.86996 78.6919 4.31078 78.3914 4.71154C78.0908 5.11229 77.8303 5.45293 77.5498 5.73345H81.8579C82.2987 5.73345 82.5592 5.99394 82.5592 6.45481C82.5592 6.91567 82.2987 7.15612 81.8579 7.15612H66.2085ZM72.0394 4.6915C72.36 5.07221 72.4402 5.43289 72.32 5.73345H75.7464C76.0069 5.19244 76.2073 4.63139 76.4477 3.84992C76.4878 3.72969 76.5279 3.6295 76.588 3.54935H70.8773C71.298 3.88999 71.6587 4.23063 72.0394 4.6915ZM82.2987 14.9508C82.7596 14.9508 83 15.2112 83 15.6521C83 16.0929 82.7596 16.3534 82.2987 16.3534H75.3456V17.8562C75.3456 18.6377 74.8848 19.0585 74.0432 19.0585C73.2016 19.0585 72.7407 18.6377 72.7407 17.8562V16.3534H65.8077C65.3469 16.3534 65.1064 16.0929 65.1064 15.6521C65.1064 15.2112 65.3469 14.9508 65.8077 14.9508H72.7407V13.8888H68.9336C68.1722 13.8888 67.7714 13.488 67.7714 12.7266V9.19996C67.7714 8.45857 68.1722 8.03778 68.9336 8.03778H79.1528C79.8942 8.03778 80.315 8.45857 80.315 9.19996V12.7266C80.315 13.488 79.8942 13.8888 79.1528 13.8888H75.3456V14.9508H82.2987ZM70.3162 9.60071V10.3221H77.7502V9.60071C77.7502 9.46045 77.65 9.36026 77.5097 9.36026H70.5567C70.4164 9.36026 70.3162 9.46045 70.3162 9.60071ZM70.5567 12.5663H77.5097C77.65 12.5663 77.7502 12.4661 77.7502 12.3258V11.5644H70.3162V12.3258C70.3162 12.4661 70.4164 12.5663 70.5567 12.5663Z" fill="#2F726D"/>
<path d="M60.638 1.68586C61.0789 1.68586 61.3394 1.92631 61.3394 2.38717C61.3394 2.84804 61.0789 3.08849 60.638 3.08849H57.7727C57.8127 3.10853 57.8328 3.1486 57.8528 3.16864C58.2335 3.56939 58.2536 3.99018 57.973 4.29075C58.1934 4.23063 58.3938 4.19056 58.5742 4.15048C59.2955 3.97014 59.9768 4.17052 60.1171 4.89187C60.2573 5.69338 59.8165 6.07409 59.1352 6.17428C56.4502 6.51492 50.8597 6.67522 47.5334 6.59507V7.21624H59.1352C59.8966 7.21624 60.2974 7.61699 60.2974 8.37842V9.74097C60.2974 10.4824 59.8966 10.9032 59.1352 10.9032H47.4733C47.2329 13.9288 46.3312 16.8343 44.5078 18.7579C44.2272 19.0585 43.8265 19.0785 43.566 18.838C43.3055 18.6176 43.3456 18.297 43.546 17.9364C44.8484 15.592 45.0889 13.2676 45.0889 9.15988V5.8136C44.8484 6.01398 44.6079 6.19432 44.3475 6.35462C43.9868 6.59507 43.6862 6.61511 43.4658 6.31454C43.2454 6.01398 43.3255 5.73345 43.546 5.45293C44.8284 3.99018 45.6699 2.22687 46.1108 0.804203C46.3512 0.0227358 47.0125 -0.137565 47.7539 0.102886C48.5353 0.363375 48.6756 0.944466 48.3951 1.64578H52.0419C52.4827 1.64578 52.7633 1.90627 52.7432 2.3471C52.7432 2.80796 52.4827 3.06845 52.0419 3.06845H50.3187C50.4589 3.24879 50.6192 3.42913 50.7395 3.60947C51.1803 4.2106 51.02 4.73157 50.3587 5.0121C49.7376 5.25255 49.1966 5.03214 48.9962 4.39093C48.8559 3.97014 48.6956 3.50928 48.5353 3.06845H47.6136C47.2329 3.64954 46.7319 4.25067 46.1909 4.81172H46.3111C46.8922 4.81172 47.273 5.03214 47.4533 5.45293C48.7157 5.39281 50.2185 5.29263 51.7413 5.15236C51.561 4.87184 51.6812 4.55123 51.9016 4.29075C52.7432 3.26883 53.3844 1.96638 53.7651 0.844278C54.0657 0.00269848 54.7069 -0.157603 55.4483 0.142962C56.1296 0.40345 56.2498 1.02462 55.9292 1.68586H60.638ZM56.2899 3.95011C56.1897 3.64954 56.0695 3.36902 55.9492 3.08849H55.0475C54.4865 3.82988 53.7651 4.51116 53.0438 5.0121C54.3262 4.87184 55.5886 4.71154 56.7107 4.51116C56.5303 4.41097 56.3901 4.2106 56.2899 3.95011ZM57.6524 8.55875H47.5334V9.56064H57.6524C57.7927 9.56064 57.8929 9.42037 57.8929 9.28011V8.79921C57.8929 8.65894 57.7927 8.55875 57.6524 8.55875ZM59.4358 11.5444C60.1772 11.5444 60.598 11.9651 60.598 12.7266V17.1148C60.598 18.7178 59.4959 19.1787 57.5522 18.6577C57.1315 18.5375 56.9511 18.277 57.0112 17.8963C57.0713 17.5556 57.2717 17.4354 57.6524 17.4354C58.2135 17.4354 58.3738 17.235 58.3738 16.694V15.6721H56.6906V17.5556C56.6906 18.1968 56.35 18.5174 55.7088 18.5174C55.0876 18.5174 54.7269 18.1568 54.7269 17.5556V15.7122H53.1239V17.5556C53.1239 18.1768 52.7833 18.5375 52.1421 18.5375C51.5009 18.5375 51.1402 18.1968 51.1402 17.5556V15.6721H49.5372V17.9764C49.5372 18.7178 49.1565 19.0384 48.4351 19.0384C47.7138 19.0384 47.293 18.6978 47.293 17.9764V12.7266C47.293 11.9651 47.7138 11.5444 48.4552 11.5444H59.4358ZM49.5372 14.3296H51.1402V12.947H49.7777C49.6374 12.947 49.5372 13.0472 49.5372 13.1874V14.3296ZM53.1239 14.2895H54.7269V12.947H53.1239V14.2895ZM56.6906 14.3296H58.3738V13.1874C58.3738 13.0472 58.2736 12.947 58.1333 12.947H56.6906V14.3296Z" fill="#2F726D"/>
<path d="M25.7125 18.0766C25.3318 17.9364 25.1915 17.6358 25.2917 17.2551C25.3919 16.9144 25.6323 16.7541 26.0932 16.8142C29.2792 17.195 29.6399 16.9545 29.6399 15.8524V1.50552C29.6399 0.643902 30.1007 0.223112 30.9824 0.223112C31.864 0.223112 32.3449 0.643902 32.3449 1.50552V16.4536C32.3449 18.8581 30.0807 19.88 25.7125 18.0766ZM38.8371 14.6903C37.9154 15.0109 37.2141 14.6502 36.9736 13.7285C36.1922 10.823 35.2304 7.9977 34.3086 5.8136C34.1283 5.37278 34.2285 5.07221 34.5892 4.8518C34.9298 4.65142 35.3305 4.71154 35.571 5.07221C36.9937 7.05594 38.6969 9.96139 39.6987 12.7266C40.0594 13.6884 39.7589 14.3697 38.8371 14.6903ZM22.8872 14.9107C22.5466 15.2112 22.1658 15.2714 21.8853 14.9908C21.5847 14.7103 21.5647 14.3897 21.8052 14.009C23.1276 11.9251 24.1696 9.32019 24.7908 5.97391C24.9511 5.11229 25.5522 4.75161 26.4138 4.93195C27.2754 5.11229 27.576 5.75349 27.3957 6.53496C26.6142 9.82112 24.7507 13.1874 22.8872 14.9107Z" fill="#2F726D"/>
<path d="M4.07188 18.0766C3.69117 17.9364 3.5509 17.6358 3.65109 17.2551C3.75128 16.9144 3.99173 16.7541 4.45259 16.8142C7.63857 17.195 7.99925 16.9545 7.99925 15.8524V1.50552C7.99925 0.643902 8.46012 0.223112 9.34177 0.223112C10.2234 0.223112 10.7043 0.643902 10.7043 1.50552V16.4536C10.7043 18.8581 8.44008 19.88 4.07188 18.0766ZM17.1965 14.6903C16.2748 15.0109 15.5735 14.6502 15.333 13.7285C14.5515 10.823 13.5897 7.9977 12.668 5.8136C12.4877 5.37278 12.5879 5.07221 12.9485 4.8518C13.2892 4.65142 13.6899 4.71154 13.9304 5.07221C15.3531 7.05594 17.0562 9.96139 18.0581 12.7266C18.4188 13.6884 18.1182 14.3697 17.1965 14.6903ZM1.24658 14.9107C0.905938 15.2112 0.525224 15.2714 0.244697 14.9908C-0.0558667 14.7103 -0.0759044 14.3897 0.164547 14.009C1.48703 11.9251 2.52898 9.32019 3.15015 5.97391C3.31045 5.11229 3.91158 4.75161 4.7732 4.93195C5.63481 5.11229 5.93538 5.75349 5.75504 6.53496C4.97357 9.82112 3.11007 13.1874 1.24658 14.9107Z" fill="#2F726D"/>
</svg>
