<svg width="24" height="24" viewBox="0 0 24 24" fill="none" xmlns="http://www.w3.org/2000/svg">
<path d="M18.6748 23.9873L5.34851 24C2.41673 24.0027 0.0159938 21.6066 0.0126622 18.6748L2.22137e-06 5.34851C-0.00266304 2.41673 2.39341 0.0159938 5.32519 0.0126622L18.6515 2.22137e-06C21.5833 -0.00266304 23.984 2.39341 23.9873 5.32519L24 18.6515C24.0033 21.5839 21.6066 23.9847 18.6748 23.9873Z" fill="url(#paint0_radial_0_61)"/>
<path d="M18.6748 23.9873L5.34851 24C2.41673 24.0027 0.0159938 21.6066 0.0126622 18.6748L2.22137e-06 5.34851C-0.00266304 2.41673 2.39341 0.0159938 5.32519 0.0126622L18.6515 2.22137e-06C21.5833 -0.00266304 23.984 2.39341 23.9873 5.32519L24 18.6515C24.0033 21.5839 21.6066 23.9847 18.6748 23.9873Z" fill="#121212"/>
<path d="M12.0003 16.6645C9.42902 16.6645 7.33613 14.5723 7.33613 12.0003C7.33613 9.42836 9.42902 7.33613 12.0003 7.33613C14.5716 7.33613 16.6645 9.42836 16.6645 12.0003C16.6645 14.5723 14.5716 16.6645 12.0003 16.6645ZM12.0003 8.66876C10.1633 8.66876 8.66876 10.1633 8.66876 12.0003C8.66876 13.8374 10.1633 15.3319 12.0003 15.3319C13.8374 15.3319 15.3319 13.8374 15.3319 12.0003C15.3319 10.1633 13.8374 8.66876 12.0003 8.66876Z" fill="white"/>
<path d="M16.9977 8.00244C17.5497 8.00244 17.9972 7.55497 17.9972 7.00297C17.9972 6.45098 17.5497 6.0035 16.9977 6.0035C16.4457 6.0035 15.9982 6.45098 15.9982 7.00297C15.9982 7.55497 16.4457 8.00244 16.9977 8.00244Z" fill="white"/>
<path d="M15.9982 20.6624H8.00244C5.43114 20.6624 3.33824 18.5702 3.33824 15.9982V8.00244C3.33824 5.43047 5.43114 3.33824 8.00244 3.33824H15.9982C18.5695 3.33824 20.6624 5.43047 20.6624 8.00244V15.9982C20.6624 18.5702 18.5695 20.6624 15.9982 20.6624ZM8.00244 4.67087C6.16541 4.67087 4.67087 6.16541 4.67087 8.00244V15.9982C4.67087 17.8353 6.16541 19.3298 8.00244 19.3298H15.9982C17.8353 19.3298 19.3298 17.8353 19.3298 15.9982V8.00244C19.3298 6.16541 17.8353 4.67087 15.9982 4.67087H8.00244Z" fill="white"/>
<defs>
<radialGradient id="paint0_radial_0_61" cx="0" cy="0" r="1" gradientUnits="userSpaceOnUse" gradientTransform="translate(8.92196 24.0173) scale(29.9169 29.9169)">
<stop stop-color="#FFDD55"/>
<stop offset="0.328" stop-color="#FF543F"/>
<stop offset="0.348" stop-color="#FC5245"/>
<stop offset="0.504" stop-color="#E64771"/>
<stop offset="0.643" stop-color="#D53E91"/>
<stop offset="0.761" stop-color="#CC39A4"/>
<stop offset="0.841" stop-color="#C837AB"/>
</radialGradient>
</defs>
</svg>
