<svg width="16" height="16" viewBox="0 0 16 16" fill="none" xmlns="http://www.w3.org/2000/svg">
<path d="M14.9732 6.76907H3.50393L8.51467 1.75832C8.91512 1.35787 8.91512 0.700727 8.51467 0.300279C8.41968 0.205092 8.30684 0.129574 8.18263 0.0780476C8.05842 0.0265217 7.92526 0 7.79078 0C7.6563 0 7.52315 0.0265217 7.39893 0.0780476C7.27472 0.129574 7.16189 0.205092 7.06689 0.300279L0.300337 7.06684C-0.100112 7.46728 -0.100112 8.11416 0.300337 8.51461L7.06689 15.2812C7.46734 15.6816 8.11422 15.6816 8.51467 15.2812C8.91512 14.8807 8.91512 14.2338 8.51467 13.8334L3.50393 8.82265H14.9732C15.5379 8.82265 16 8.36059 16 7.79586C16 7.23112 15.5379 6.76907 14.9732 6.76907Z" fill="#E8652B"/>
</svg>
