<svg width="16" height="16" viewBox="0 0 16 16" fill="none" xmlns="http://www.w3.org/2000/svg">
<path d="M1.02682 8.82293H12.4964L7.48555 13.8338C7.08508 14.2343 7.08508 14.8915 7.48555 15.2919C7.88601 15.6924 8.5329 15.6924 8.93337 15.2919L15.7001 8.52515C16.1006 8.12469 16.1006 7.47779 15.7001 7.07733L8.94364 0.300288C8.84864 0.205098 8.7358 0.129578 8.61159 0.0780501C8.48737 0.0265226 8.35421 0 8.21972 0C8.08524 0 7.95208 0.0265226 7.82786 0.0780501C7.70365 0.129578 7.59081 0.205098 7.49581 0.300288C7.09535 0.700749 7.09535 1.34765 7.49581 1.74811L12.4964 6.76928H1.02682C0.462071 6.76928 0 7.23135 0 7.7961C0 8.36085 0.462071 8.82293 1.02682 8.82293Z" fill="#E8652B"/>
</svg>
