<svg width="6" height="10" viewBox="0 0 6 10" fill="none" xmlns="http://www.w3.org/2000/svg">
<path d="M5.63091 0.261697C5.54812 0.17874 5.44979 0.112925 5.34153 0.0680198C5.23328 0.0231144 5.11723 0 5.00003 0C4.88283 0 4.76679 0.0231144 4.65853 0.0680198C4.55028 0.112925 4.45194 0.17874 4.36916 0.261697L0.261747 4.36911C-0.0872489 4.7181 -0.0872489 5.28186 0.261747 5.63086L4.36916 9.73827C4.71815 10.0873 5.28191 10.0873 5.63091 9.73827C5.97991 9.38927 5.97991 8.82551 5.63091 8.47652L2.15885 4.99551L5.63091 1.52345C5.97991 1.17445 5.97096 0.601744 5.63091 0.261697Z" fill="#4F4F4F"/>
</svg>
